<?xml version="1.0" encoding="UTF-8"?>
<svg xmlns="http://www.w3.org/2000/svg" style="stroke-dasharray:none; shape-rendering:auto; font-family:'Arial'; text-rendering:auto; fill-opacity:1; color-interpolation:auto; color-rendering:auto; font-size:12; fill:black; stroke:black; image-rendering:auto; stroke-miterlimit:10; stroke-linecap:square; stroke-linejoin:miter; font-style:normal; stroke-width:1; stroke-dashoffset:0; font-weight:normal; stroke-opacity:1;" contentScriptType="text/ecmascript" preserveAspectRatio="xMidYMid meet" zoomAndPan="magnify" version="1.0" contentStyleType="text/css" xml:xlink="http://www.w3.org/1999/xlink" width="1080" height="440"><rect x="20" y="20" width="1060" height="420" ry="0" rx="0" style="stroke:#000000; fill:#FFFFFF" /><rect x="50" y="160" width="1030" height="140" ry="0" rx="0" style="stroke:#000000; fill:#C9C3AC" /><g componentSequence="4"><text x="-230" y="56" transform="rotate(270)" text-anchor="middle" style="font-weight:bold;font-size:10px;stroke:none; fill:#434343"><tspan dy="14" x="-230">Solicitante</tspan></text></g><rect x="50" y="300" width="1030" height="140" ry="0" rx="0" style="stroke:#000000; fill:#D6E0D0" /><g componentSequence="3"><text x="-370" y="56" transform="rotate(270)" text-anchor="middle" style="font-weight:bold;font-size:10px;stroke:none; fill:#434343"><tspan dy="14" x="-370">Coordenação Médica</tspan></text></g><rect x="50" y="20" width="1030" height="140" ry="0" rx="0" style="stroke:#000000; fill:#D0DAAE" /><g componentSequence="2"><text x="-90" y="56" transform="rotate(270)" text-anchor="middle" style="font-weight:bold;font-size:10px;stroke:none; fill:#434343"><tspan dy="14" x="-90">Area Médica</tspan></text></g><g componentSequence="1"><text x="-230" y="26" transform="rotate(270)" text-anchor="middle" style="font-weight:bold;font-size:10px;stroke:none; fill:#434343"><tspan dy="14" x="-230">Divergência de Laudo</tspan></text></g><g sequence="7"><ellipse cx="107" cy="77" rx="17" ry="17" stroke-width="1" style="fill:url(#linearGradient66FF6696FF96B6FFB6_756156670);" stroke="336633" /></g><g sequence="8"><polygon points=" 210 50 240 20 270 50 240 80 210 50" style="fill:url(#linearGradientFAFBFCFFFFCC_601219884);" stroke="000000" /></g><g componentSequence="8"><text x="240" y="90" text-anchor="middle" style="font-weight:bold;font-size:10px;stroke:none; fill:#333399"><tspan dy="14" x="240">Volta</tspan><tspan dy="14" x="240">para o</tspan><tspan dy="14" x="240">solicit...</tspan></text></g><g sequence="18"><rect x="350" y="320" width="106" height="64" ry="5" rx="5" style="fill:url(#linearGradientF8FBFEEDF5FCDEEDFAD4E7F8E2E5E9_669672334);" stroke="191970" /></g><g componentSequence="18"><text x="403" y="335" text-anchor="middle" style="font-weight:bold;font-size:10px;stroke:none; fill:#333399"><tspan dy="14" x="403">Coordenação</tspan><tspan dy="14" x="403">Medica</tspan></text></g><g sequence="19"><rect x="190" y="204" width="106" height="52" ry="5" rx="5" style="fill:url(#linearGradientF8FBFEEDF5FCDEEDFAD4E7F8E2E5E9_1659431191);" stroke="191970" /></g><g componentSequence="19"><text x="243" y="219" text-anchor="middle" style="font-weight:bold;font-size:10px;stroke:none; fill:#333399"><tspan dy="14" x="243">Area Medica</tspan></text></g><g sequence="21"><polygon points=" 370 211 400 181 430 211 400 241 370 211" style="fill:url(#linearGradientFAFBFCFFFFCC_1602242636);" stroke="000000" /></g><g componentSequence="21"><text x="400" y="251" text-anchor="middle" style="font-weight:bold;font-size:10px;stroke:none; fill:#333399"><tspan dy="14" x="400">Seguir</tspan><tspan dy="14" x="400">com o</tspan><tspan dy="14" x="400">proc...</tspan></text></g><g sequence="23"><ellipse cx="547" cy="231" rx="17" ry="17" stroke-width="3" style="fill:url(#linearGradientFF6666FF9696FFB6B6_1405094931);" stroke="993333" /></g><g componentSequence="9"><text x="177" y="76" style="font-size:10px;font-weight:none;stroke:none; fill:#333399" text-anchor="left" /></g><g componentSequence="20"><text x="252" y="166" style="font-size:10px;font-weight:none;stroke:none; fill:#333399" text-anchor="left" /></g><g componentSequence="22"><text x="343" y="232" style="font-size:10px;font-weight:none;stroke:none; fill:#333399" text-anchor="left" /></g><g componentSequence="24"><text x="490" y="233" style="font-size:10px;font-weight:none;stroke:none; fill:#333399" text-anchor="left" /></g><g componentSequence="25"><text x="412" y="304" style="font-size:10px;font-weight:none;stroke:none; fill:#333399" text-anchor="left" /></g><g componentSequence="26"><text x="252" y="166" style="font-size:10px;font-weight:none;stroke:none; fill:#333399" text-anchor="left" /></g><g componentSequence="27"><text x="257" y="354" style="font-size:10px;font-weight:none;stroke:none; fill:#333399" text-anchor="left" /></g><g componentSequence="28"><text x="495" y="283" style="font-size:10px;font-weight:none;stroke:none; fill:#333399" text-anchor="left" /></g><g componentSequence="29"><text x="177" y="75" style="font-size:10px;font-weight:none;stroke:none; fill:#333399" text-anchor="left" /></g><path style="fill:none; stroke:#000000;stroke-width:1" d="M124.0 77.0 L209.0 74.0" /><polygon style="fill:#000000; stroke:#000000;" points=" 199 69 209 74 199 79 201 74" /><path style="fill:none; stroke:#000000;stroke-width:1" d="M209.0 74.0 L124.0 77.0" /><polygon style="fill:#000000; stroke:#000000;" points=" 134 82 124 77 134 72 132 77" /><path style="fill:none; stroke:#000000;stroke-width:1" d="M241.0 128.0 L242.0 203.0" /><polygon style="fill:#000000; stroke:#000000;" points=" 247 193 242 203 237 193 242 195" /><path style="fill:none; stroke:#000000;stroke-width:1" d="M242.0 203.0 L241.0 128.0" /><polygon style="fill:#000000; stroke:#000000;" points=" 236 138 241 128 246 138 241 136" /><path style="fill:none; stroke:#000000;stroke-width:1" d="M349.0 352.0 L242.0 354.0 L242.0 256.0" /><polygon style="fill:#000000; stroke:#000000;" points=" 237 266 242 256 247 266 242 264" /><path style="fill:none; stroke:#000000;stroke-width:1" d="M441.0 319.0 L534.0 242.0" /><polygon style="fill:#000000; stroke:#000000;" points=" 523 245 534 242 529 252 528 247" /><path style="fill:none; stroke:#000000;stroke-width:1" d="M401.0 289.0 L402.0 319.0" /><polygon style="fill:#000000; stroke:#000000;" points=" 407 309 402 319 397 309 402 311" /><path style="fill:none; stroke:#000000;stroke-width:1" d="M296.0 231.0 L369.0 234.0" /><polygon style="fill:#000000; stroke:#000000;" points=" 359 229 369 234 359 239 361 234" /><path style="fill:none; stroke:#000000;stroke-width:1" d="M430.0 234.0 L530.0 231.0" /><polygon style="fill:#000000; stroke:#000000;" points=" 520 226 530 231 520 236 522 231" /><defs><linearGradient xmlns:xlink="http://www.w3.org/1999/xlink" xlink:href="#linearGradient66FF6696FF96B6FFB6" id="linearGradient66FF6696FF96B6FFB6_756156670" x1="0" y1="60.0" x2="0" y2="95.0" gradientUnits="userSpaceOnUse" xlink:type="simple" xlink:actuate="onLoad" xlink:show="other" /><linearGradient id="linearGradient66FF6696FF96B6FFB6"><stop style="stop-color:#66FF66;stop-opacity:1;" offset="0.0" id="stop66FF66" /><stop style="stop-color:#96FF96;stop-opacity:1;" offset="0.5" id="stop96FF96" /><stop style="stop-color:#B6FFB6;stop-opacity:1;" offset="1.0" id="stopB6FFB6" /></linearGradient><linearGradient xmlns:xlink="http://www.w3.org/1999/xlink" xlink:href="#linearGradientFAFBFCFFFFCC" id="linearGradientFAFBFCFFFFCC_601219884" x1="0" y1="20.0" x2="0" y2="80.0" gradientUnits="userSpaceOnUse" xlink:type="simple" xlink:actuate="onLoad" xlink:show="other" /><linearGradient id="linearGradientFAFBFCFFFFCC"><stop style="stop-color:#FAFBFC;stop-opacity:1;" offset="0.0" id="stopFAFBFC" /><stop style="stop-color:#FFFFCC;stop-opacity:1;" offset="1.0" id="stopFFFFCC" /></linearGradient><linearGradient xmlns:xlink="http://www.w3.org/1999/xlink" xlink:href="#linearGradientF8FBFEEDF5FCDEEDFAD4E7F8E2E5E9" id="linearGradientF8FBFEEDF5FCDEEDFAD4E7F8E2E5E9_669672334" x1="0" y1="320.0" x2="0" y2="426.0" gradientUnits="userSpaceOnUse" xlink:type="simple" xlink:actuate="onLoad" xlink:show="other" /><linearGradient id="linearGradientF8FBFEEDF5FCDEEDFAD4E7F8E2E5E9"><stop style="stop-color:#F8FBFE;stop-opacity:1;" offset="0.0" id="stopF8FBFE" /><stop style="stop-color:#EDF5FC;stop-opacity:1;" offset="0.25" id="stopEDF5FC" /><stop style="stop-color:#DEEDFA;stop-opacity:1;" offset="0.5" id="stopDEEDFA" /><stop style="stop-color:#D4E7F8;stop-opacity:1;" offset="0.75" id="stopD4E7F8" /><stop style="stop-color:#E2E5E9;stop-opacity:1;" offset="1.0" id="stopE2E5E9" /></linearGradient><linearGradient xmlns:xlink="http://www.w3.org/1999/xlink" xlink:href="#linearGradientF8FBFEEDF5FCDEEDFAD4E7F8E2E5E9" id="linearGradientF8FBFEEDF5FCDEEDFAD4E7F8E2E5E9_1659431191" x1="0" y1="204.0" x2="0" y2="310.0" gradientUnits="userSpaceOnUse" xlink:type="simple" xlink:actuate="onLoad" xlink:show="other" /><linearGradient xmlns:xlink="http://www.w3.org/1999/xlink" xlink:href="#linearGradientFAFBFCFFFFCC" id="linearGradientFAFBFCFFFFCC_1602242636" x1="0" y1="181.0" x2="0" y2="241.0" gradientUnits="userSpaceOnUse" xlink:type="simple" xlink:actuate="onLoad" xlink:show="other" /><linearGradient xmlns:xlink="http://www.w3.org/1999/xlink" xlink:href="#linearGradientFF6666FF9696FFB6B6" id="linearGradientFF6666FF9696FFB6B6_1405094931" x1="0" y1="214.0" x2="0" y2="249.0" gradientUnits="userSpaceOnUse" xlink:type="simple" xlink:actuate="onLoad" xlink:show="other" /><linearGradient id="linearGradientFF6666FF9696FFB6B6"><stop style="stop-color:#FF6666;stop-opacity:1;" offset="0.0" id="stopFF6666" /><stop style="stop-color:#FF9696;stop-opacity:1;" offset="0.5" id="stopFF9696" /><stop style="stop-color:#FFB6B6;stop-opacity:1;" offset="1.0" id="stopFFB6B6" /></linearGradient></defs></svg>
